<svg overflow="hidden" viewBox="0, 0, 256, 213.49" id="9890f9c8-d443-4f24-84e6-8de53ec82c8b" xmlns="http://www.w3.org/2000/svg" xmlns:xlink="http://www.w3.org/1999/xlink" xmlns:xml="http://www.w3.org/XML/1998/namespace" version="1.1"><defs /><g id="Layer_3"><g id="Layer_4"><path d="M14.62 64.8 C8.76 84.2 8.62 108.26 13.14 127.31 C22.14 165.44 54.95 196.8 104.77 200.44 C133.1 202.5 165.77 201.94 189.77 189.82 C211.92 178.59 224.06 169.82 235.59 150.98 C245.52 134.77 249.32 103.1 236.32 86.75 C233.469 83.2372 230.061 80.217 226.23 77.81 C207.45 65.75 180.44 69.93 159.8 61.25 C148.16 56.36 138.88 48.25 131.8 39.35 C128.36 35.06 126.21 29.86 122.59 25.77 C104 4.91 68.53 7 45.93 22.2 C30.7928 32.2598 19.7019 47.3498 14.62 64.8 z" style="fill:#FFECD3;" /><path d="M74.05 194.1 C116.05 189.1 158.38 185.75 200.65 183.98 L201.94 183.24 C158.76 185.01 115.55 188.47 72.61 193.58 z" style="fill:#FCC39E;" /><path d="M223.37 167 C223.59 166.78 223.8 166.55 224.02 166.32 C174.7 165.59 125.08 166.38 75.71 168.69 L31.62 164.69 L32.24 165.44 L70.72 168.93 C59.5133 169.477 48.3167 170.103 37.13 170.81 L37.78 171.46 C50.3933 170.667 63.0333 169.973 75.7 169.38 L131.7 174.47 C103.98 175.803 74.88 176.803 44.4 177.47 L45.22 178.14 C77.22 177.473 107.68 176.393 136.6 174.9 L205.38 181.15 L206.38 180.54 L141.48 174.65 C169.4 173.177 195.993 171.323 221.26 169.09 L222.04 168.33 C195.047 170.717 166.58 172.677 136.64 174.21 L80.76 169.14 C128.25 167 176 166.31 223.37 167 z" style="fill:#FCC39E;" /><path d="M85.37 10.44 C63.1945 29.6691 39.7078 47.3317 15.08 63.3 C14.97 63.64 14.87 63.99 14.76 64.3 C39.878 48.0626 63.8175 30.0712 86.4 10.46 z" style="fill:#FCC39E;" /><path d="M65.25 95.35 C79.0716 68.2492 95.3924 42.4975 114 18.43 L113.41 18.06 C94.801 42.1377 78.4739 67.8955 64.64 95 C60.4 103.36 56.31 112 52.35 120.3 C45.53 134.67 38.58 149.3 30.47 163.3 C30.62 163.5 30.77 163.69 30.93 163.88 C39.11 149.88 46.11 135.1 52.93 120.64 C56.93 112.27 61 103.66 65.25 95.35 z" style="fill:#FCC39E;" /><path d="M83.13 48.38 C88.13 41.38 92.83 33.93 97.35 26.7 C99.98 22.5 102.64 18.25 105.35 14.06 L104.69 13.81 C101.96 17.97 99.33 22.17 96.69 26.34 C92.25 33.55 87.59 41 82.57 48 C63.8696 73.9677 39.081 94.9481 10.38 109.1 L10.44 109.84 C39.3495 95.6336 64.3149 74.5252 83.13 48.38 z" style="fill:#FCC39E;" /><path d="M244.18 108 L197 108 L197 134.7 L242.14 134.7 C244.398 125.991 245.089 116.951 244.18 108 z" style="fill:#6890CA;" /><path d="M231.39 134.68 C235.543 132.567 239.6 130.287 243.56 127.84 L243.71 126.94 C239.21 129.74 234.59 132.32 229.85 134.68 z" style="fill:#7CA4D6;" /><path d="M234.15 119.72 L243.67 108 L242.78 108 L233 120 L217.8 124.06 C222.644 118.97 227.195 113.608 231.43 108 L230.57 108 C226.225 113.746 221.551 119.235 216.57 124.44 L197 129.64 L197 130.35 L215.62 125.35 C212.487 128.557 209.24 131.657 205.88 134.65 L206.88 134.65 C210.34 131.563 213.673 128.35 216.88 125.01 L232.26 120.9 L221.12 134.65 L222 134.65 L233.38 120.6 L244.52 117.6 C244.52 117.36 244.52 117.12 244.52 116.88 z" style="fill:#7CA4D6;" /><path d="M219.62 107.98 L196.99 118.86 L196.99 119.62 L221.21 107.98 L219.62 107.98 z" style="fill:#7CA4D6;" /><path d="M228.13 121.33 L219.86 116.55 L219.86 126.1 L228.13 121.33 z" style="fill:#DBF0EC;" /><path d="M215.66 146.35 L197.84 146.35 L197.84 155.92 L209.94 155.92 L213.27 159.25 L213.27 155.92 L215.66 155.92 L215.66 146.35 z" style="fill:#91655F;" /><path d="M203.41 138.51 L222.83 138.51 L222.83 148.95 L209.64 148.95 L206.02 152.57 L206.02 148.95 L203.41 148.95 L203.41 138.51 z" style="fill:#00B282;" /><path d="M213.32 131.03 L192.5 131.03 L192.5 142.22 L206.64 142.22 L210.52 146.1 L210.52 142.22 L213.32 142.22 L213.32 131.03 z" style="fill:#FFD365;" /><path d="M219.56 103.72 C219.56 106.28 214.94 113.26 214.94 113.26 C214.94 113.26 210.32 106.26 210.32 103.72 C210.32 101.168 212.388 99.1 214.94 99.1 C217.492 99.1 219.56 101.168 219.56 103.72 z" style="fill:#F26F61;" /><path d="M217.4 103.72 C217.406 105.079 216.309 106.184 214.95 106.19 C213.591 106.196 212.486 105.099 212.48 103.74 C212.475 102.381 213.571 101.276 214.93 101.27 C214.933 101.27 214.937 101.27 214.94 101.27 C216.295 101.27 217.394 102.365 217.4 103.72 z" style="fill:#DBF0EC;" /><path d="M169.63 198.51 C169.63 197.51 169.63 196.15 169.63 194.82 C169.63 191.82 169.63 188.82 169.63 188.37 L182.2 188.46 C182.754 191.113 184.541 193.342 187.01 194.46 C188.77 195.25 190.82 195.46 192.5 196.46 C194.18 197.46 195.2 200.66 194.39 202.46 L169.23 202.46 C168.81 201.23 169.54 198.82 169.63 198.51 z" style="fill:#E8ABCD;" /><path d="M194.47 198.35 C187.37 198.44 180.12 198.35 173.12 198.21 L169.18 198.15 C168.989 198.117 168.809 198.246 168.776 198.436 C168.743 198.627 168.872 198.807 169.062 198.84 C169.101 198.847 169.141 198.847 169.18 198.84 L173.11 198.9 C178.31 198.99 183.64 199.07 188.94 199.07 C190.79 199.07 192.65 199.07 194.49 199.07 C194.679 199.065 194.83 198.909 194.83 198.72 C194.847 198.533 194.709 198.368 194.522 198.351 C194.505 198.349 194.487 198.349 194.47 198.35 z" style="fill:#3D4040;" /><path d="M114.29 198.47 L114.29 198.47 C114.471 197.42 114.739 196.386 115.09 195.38 C115.85 193.23 117.52 189.38 118.09 187.16 C119.79 187.38 128.09 188.1 130.47 188.27 C130.24 190.47 130.31 192.42 131.78 194.01 C133.25 195.6 135.89 195.37 137.47 196.57 C138.226 197.316 138.66 198.328 138.68 199.39 C138.68 199.66 139.12 202.48 138.68 202.48 L113.78 202.48 C113.43 201.14 114.29 198.47 114.29 198.47 z" style="fill:#E8ABCD;" /><path d="M133.26 199.17 C128.32 199.17 123.52 199.09 118.52 199.01 L114.13 198.94 C113.941 198.935 113.79 198.779 113.79 198.59 C113.805 198.405 113.955 198.259 114.14 198.25 L118.53 198.32 C125.36 198.43 131.81 198.54 138.74 198.45 C138.916 198.433 139.072 198.562 139.089 198.738 C139.091 198.755 139.091 198.773 139.09 198.79 C139.09 198.978 138.938 199.13 138.75 199.13 C136.89 199.16 135.06 199.17 133.26 199.17 z" style="fill:#3D4040;" /><path d="M182.73 156.58 C182.509 153.708 181.834 150.89 180.73 148.23 C179.633 146.19 178.29 144.292 176.73 142.58 C172.77 137.82 168.817 133.057 164.87 128.29 C161.21 123.88 159.19 120.4 153.87 117.91 C150.61 116.38 146.65 114.78 143.37 116.91 C140.729 118.666 138.922 121.427 138.37 124.55 C138.136 125.909 138.163 127.301 138.45 128.65 C131.09 147.5 116.88 187.22 116.29 188.89 L133.63 189.7 C134.14 189.7 144.69 163.84 151.93 144.94 C152.42 145.28 152.93 145.59 153.37 145.94 C156.26 147.79 159.32 149.45 161.83 151.79 C162.04 152 162.25 152.2 162.45 152.42 C167.56 157.96 166.01 166.94 166.33 174.12 C166.33 175.2 167.06 190.74 166.75 190.74 L184.63 190.62 C185 190.54 183.15 159.86 182.73 156.58 z" style="fill:#7BCAB3;" /><path d="M160.11 150.52 C160.025 150.519 159.943 150.487 159.88 150.43 C158.547 149.365 157.118 148.428 155.61 147.63 L154.26 146.86 C150.133 144.545 146.416 141.565 143.26 138.04 C141.42 135.91 137.26 130.34 138.01 124.57 C138.035 124.384 138.207 124.254 138.393 124.279 C138.395 124.279 138.398 124.28 138.4 124.28 C138.586 124.306 138.718 124.473 138.7 124.66 C138.19 128.47 140.09 133.3 143.78 137.59 C146.891 141.056 150.55 143.988 154.61 146.27 L156 147 C157.549 147.817 159.016 148.782 160.38 149.88 C160.507 150.015 160.507 150.225 160.38 150.36 C160.319 150.452 160.22 150.511 160.11 150.52 z" style="fill:#3D4040;" /><path d="M190.82 79.2 C183.47 86.2 164 104.58 162.82 103.51 C161.28 102.1 155.06 92.76 156.27 92.37 C163.73 89.91 173.22 82.11 180.32 75.37 C183.4 72.42 192.25 77.83 190.82 79.2 z" style="fill:#FFD365;" /><path d="M174.14 94.42 C174.27 94.76 176.64 94.07 176.88 94.03 C176.292 90.3267 175.517 86.6554 174.56 83.03 C172.004 83.5383 169.479 84.1961 167 85 C168.561 85.837 170.009 86.8685 171.31 88.07 C172.5 89.33 173.92 93.74 174.14 94.42 z" style="fill:#3D4040;" /><path d="M157.55 76.67 L157.17 76.6 C153.28 76.06 149.68 80.6 151.08 84.26 C152.48 87.92 158.18 88.92 160.72 85.92 C163.26 82.92 161.39 77.46 157.55 76.67 z" style="fill:#91655F;" /><path d="M159 75 C157.336 73.7491 155.129 73.4894 153.22 74.32 C152.36 73.73 151.34 73.06 151.15 72.97 C148.607 71.7869 145.759 71.4235 143 71.93 C137.49 72.93 133.07 76.49 130 81.06 C128.41 83.46 127 86.26 125.07 88.39 C123.38 90.25 120.68 91.27 119.73 93.75 C118.981 96.2289 120.159 98.8826 122.5 99.99 C124.848 100.982 127.547 100.655 129.59 99.13 C131.612 97.5948 133.079 95.443 133.77 93 C135.57 87.4 134.58 81.31 140.27 77.63 C143.108 76.0097 146.54 75.8063 149.55 77.08 C148.077 78.8348 147.934 81.35 149.2 83.26 C150.112 84.4637 151.246 85.482 152.54 86.26 C151.695 84.4321 152.202 82.2637 153.77 81 C154.376 80.4638 155.104 80.0829 155.89 79.89 C156.67 79.71 157.48 79.7 158.25 79.52 C159.046 79.393 159.745 78.9208 160.16 78.23 C160.68 77.09 160 75.77 159 75 z" style="fill:#3D4040;" /><path d="M182.79 91 C182.26 91 182.52 92.29 182.46 92.36 C182.4 92.43 183 89 181 89 C180 89 180.46 91.7 180.54 91 C180.67 89.7 180.43 88 179.54 87.73 C178.958 87.4747 178.28 87.7391 178.025 88.3206 C178.008 88.3596 177.993 88.3994 177.98 88.44 C177.858 87.687 177.509 86.9891 176.98 86.44 C175.98 85.44 175.23 85.8 175.23 85.79 C175.748 87.8885 175.779 90.0777 175.32 92.19 C175.292 92.3446 175.23 92.4913 175.14 92.62 C175.044 92.7572 174.871 92.8176 174.71 92.77 C174.41 92.66 174.36 91.77 174.31 91.52 C174.205 90.9409 173.95 90.3995 173.57 89.95 C173.408 89.7396 173.216 89.5543 173 89.4 C172.783 89.2271 172.53 89.1042 172.26 89.04 C171.87 88.94 171.31 88.98 171.18 89.44 C171.145 89.6385 171.145 89.8415 171.18 90.04 C171.246 91.5385 171.549 93.017 172.08 94.42 C172.37 95 172.85 95.42 173.13 96.01 C173.42 96.6373 173.573 97.319 173.58 98.01 C173.294 100.083 172.815 102.126 172.15 104.11 C173.32 104.43 179.43 106.2 179.47 106.11 C180.35 103.84 182.24 98.68 182.98 97.11 C183.72 95.54 184 91 182.79 91 z" style="fill:#91655F;" /><path d="M177.55 86.9 C177.366 86.9392 177.249 87.1199 177.289 87.3035 C177.289 87.3057 177.29 87.3079 177.29 87.31 C177.561 88.5012 177.478 89.7456 177.05 90.89 C176.983 91.0655 177.071 91.2619 177.247 91.3288 C177.248 91.3292 177.249 91.3296 177.25 91.33 C177.289 91.3397 177.331 91.3397 177.37 91.33 C177.513 91.3338 177.642 91.245 177.69 91.11 C178.176 89.8333 178.27 88.4405 177.96 87.11 C177.899 86.944 177.721 86.8526 177.55 86.9 z" style="fill:#3D4040;" /><path d="M180.76 89.25 C180.767 89.0734 180.629 88.9246 180.453 88.9177 C180.435 88.917 180.417 88.9178 180.4 88.92 C180.211 88.9307 180.064 89.0904 180.07 89.28 C180.131 90.1582 179.998 91.039 179.68 91.86 C179.621 92.0422 179.719 92.2383 179.9 92.3 L180.01 92.3 C180.157 92.2977 180.287 92.2067 180.34 92.07 C180.674 91.1692 180.817 90.2089 180.76 89.25 z" style="fill:#3D4040;" /><path d="M182.87 91.09 C182.877 90.9134 182.739 90.7646 182.563 90.7577 C182.545 90.757 182.527 90.7578 182.51 90.76 C182.321 90.7707 182.174 90.9304 182.18 91.12 C182.241 91.9973 182.111 92.8774 181.8 93.7 C181.735 93.8761 181.825 94.0717 182.001 94.1368 C182.004 94.1379 182.007 94.139 182.01 94.14 L182.12 94.14 C182.267 94.1377 182.397 94.0467 182.45 93.91 C182.784 93.0092 182.927 92.0489 182.87 91.09 z" style="fill:#3D4040;" /><path d="M172.68 99.54 C171.41 102.7 169.961 105.785 168.34 108.78 C166.511 105.938 165.088 102.855 164.11 99.62 C163.656 97.3493 162.684 95.214 161.27 93.38 C160.674 92.6998 159.932 92.1631 159.1 91.81 C156.1 90.33 152.24 91.62 149.28 93.81 C147.614 95.1988 146.232 96.8966 145.21 98.81 C142.348 103.691 139.861 108.782 137.77 114.04 C137.082 115.343 136.853 116.841 137.12 118.29 C137.65 120.08 139.5 121.1 141.22 121.83 C148.645 124.965 156.714 126.275 164.75 125.65 C164.83 125.17 164.9 124.71 164.97 124.24 C165.896 124.965 167.034 125.369 168.21 125.39 C169.042 125.356 169.846 125.078 170.52 124.59 C170.932 124.34 171.314 124.045 171.66 123.71 C172.894 122.363 173.931 120.848 174.74 119.21 C175.47 117.84 182.2 104.3 182.2 104.3 z" style="fill:#FFD365;" /><path d="M196.93 55 C191.79 62.45 186.87 69.54 177.93 72.68 C175.02 73.68 168.62 76.05 168.62 76.05 L171.74 85.81 C171.74 85.81 176.29 84.49 177.87 84 C181.32 83 184.43 82.07 188.05 82.25 C195.45 82.61 205.41 85.98 205.41 85.98 z" style="fill:#6890CA;" /><path d="M164 78.89 C163 81.47 163.73 84.79 166.34 86.12 C168.95 87.45 172.99 85.78 172.99 85.78 L170 75.19 C170 75.19 165.06 76.32 164 78.89 z" style="fill:#F26F61;" /><path d="M221.14 35.75 C221.19 35.5677 221.082 35.3797 220.9 35.33 C220.718 35.2803 220.53 35.3877 220.48 35.57 C217.96 44.84 212.05 50.3 205.21 56.63 L203.88 57.86 C203.747 57.9961 203.747 58.2139 203.88 58.35 C204.016 58.4834 204.234 58.4834 204.37 58.35 L205.7 57.11 C212.31 51 218.57 45.21 221.14 35.75 z" style="fill:#3D4040;" /><path d="M246.9 54.91 C246.808 54.743 246.599 54.6808 246.43 54.77 C234.34 61.41 221.43 64.4 207.87 67.57 L206.87 67.81 C206.691 67.8425 206.572 68.0142 206.604 68.1935 C206.606 68.2024 206.608 68.2113 206.61 68.22 C206.643 68.3764 206.78 68.4887 206.94 68.49 L207 68.49 L208 68.25 C221.06 65.25 234.56 62.07 246.73 55.38 C246.903 55.3072 246.984 55.1079 246.912 54.9348 C246.908 54.9264 246.904 54.9181 246.9 54.91 z" style="fill:#3D4040;" /><path d="M212.79 80.15 C211.79 79.79 210.86 79.44 209.92 79.07 C209.748 78.9827 209.537 79.0518 209.45 79.2243 C209.362 79.3968 209.432 79.6074 209.604 79.6946 C209.625 79.7053 209.647 79.7138 209.67 79.72 L212.55 80.8 C218.62 83.05 224.89 85.38 229.46 90.01 C229.527 90.0753 229.617 90.1113 229.71 90.11 C229.819 90.1239 229.928 90.0826 230 90 C230.135 89.8698 230.139 89.6546 230.009 89.5193 C230.006 89.5161 230.003 89.513 230 89.51 C225.28 84.78 218.93 82.43 212.79 80.15 z" style="fill:#3D4040;" /><path d="M169 78.79 C168.954 78.6138 168.773 78.5086 168.597 78.5551 C168.591 78.5566 168.586 78.5582 168.58 78.56 L165.35 79.56 C165.17 79.6176 165.068 79.8081 165.12 79.99 C165.161 80.1366 165.298 80.2357 165.45 80.23 L165.55 80.23 L168.77 79.23 C168.955 79.1728 169.058 78.9767 169.001 78.792 C169 78.7914 169 78.7907 169 78.79 z" style="fill:#3D4040;" /><path d="M169.57 80.91 C169.512 80.7297 169.322 80.6278 169.14 80.68 L165.92 81.63 C165.74 81.6876 165.638 81.8781 165.69 82.06 C165.731 82.2084 165.866 82.311 166.02 82.31 L166.11 82.31 L169.34 81.31 C169.506 81.2532 169.605 81.0821 169.57 80.91 z" style="fill:#3D4040;" /><path d="M170.16 83 C170.102 82.8197 169.912 82.7178 169.73 82.77 L166.5 83.77 C166.318 83.8339 166.221 84.0335 166.285 84.216 C166.333 84.351 166.457 84.4436 166.6 84.45 L166.7 84.45 L169.92 83.45 C170.103 83.4067 170.216 83.2234 170.172 83.0407 C170.169 83.0269 170.165 83.0133 170.16 83 z" style="fill:#3D4040;" /><path d="M206.53 85.69 L198.03 54.69 C197.921 54.0642 197.326 53.645 196.7 53.7536 C196.075 53.8621 195.655 54.4575 195.764 55.0832 C195.776 55.1538 195.795 55.223 195.82 55.29 L204.32 86.29 C204.455 86.786 204.906 87.1301 205.42 87.13 C205.523 87.1446 205.627 87.1446 205.73 87.13 C206.343 86.9634 206.705 86.3316 206.538 85.7187 C206.536 85.7091 206.533 85.6995 206.53 85.69 z" style="fill:#F26F61;" /><path d="M171 124 C169.967 124.931 168.547 125.304 167.19 125 C163.74 124.16 160.87 118.8 159.47 115.68 C157.81 111.99 155.89 108.36 154.02 104.84 L152.5 102 C152.416 101.832 152.212 101.764 152.044 101.848 C152.043 101.849 152.041 101.849 152.04 101.85 C151.869 101.939 151.802 102.149 151.89 102.32 C152.38 103.26 152.89 104.19 153.38 105.13 C155.04 108.27 156.75 111.51 158.28 114.79 C158.217 114.82 158.164 114.869 158.13 114.93 C157.089 116.877 155.477 118.458 153.51 119.46 C153.334 119.525 153.244 119.721 153.309 119.897 C153.309 119.898 153.31 119.899 153.31 119.9 C153.362 120.031 153.489 120.118 153.63 120.12 L153.76 120.12 C155.8 119.105 157.487 117.498 158.6 115.51 L158.8 115.96 C160.58 119.9 163.44 124.79 166.99 125.66 C167.346 125.75 167.712 125.797 168.08 125.8 C169.294 125.765 170.46 125.313 171.38 124.52 C171.529 124.406 171.557 124.192 171.443 124.043 C171.442 124.042 171.441 124.041 171.44 124.04 C171.321 123.924 171.138 123.907 171 124 z" style="fill:#3D4040;" /><path d="M172.89 99.3 C172.716 99.2296 172.517 99.3091 172.44 99.48 L172.31 99.78 C171.191 102.628 169.874 105.395 168.37 108.06 C168.16 107.68 167.94 107.3 167.72 106.92 C166.321 104.751 165.236 102.394 164.5 99.92 C163.03 93.92 160.44 90.92 156.59 90.76 C156.408 90.7434 156.248 90.8771 156.231 91.0586 C156.23 91.0691 156.23 91.0795 156.23 91.09 C156.224 91.2796 156.371 91.4393 156.56 91.45 C160.07 91.58 162.45 94.45 163.84 100.09 C164.586 102.624 165.691 105.038 167.12 107.26 C167.39 107.72 167.65 108.19 167.91 108.65 L167.97 108.72 C166.93 110.474 165.629 112.059 164.11 113.42 C163.978 113.553 163.978 113.767 164.11 113.9 C164.176 113.975 164.27 114.019 164.37 114.02 C164.454 114.023 164.536 113.994 164.6 113.94 C168.6 110.52 171.14 104.47 172.99 100.05 L173.11 99.75 C173.178 99.5752 173.092 99.3779 172.917 99.3094 C172.908 99.3059 172.899 99.3027 172.89 99.3 z" style="fill:#3D4040;" /><path d="M32.62 137.24 C33.1828 138.008 34.0513 138.493 35 138.57 C36.1701 138.554 37.2242 137.859 37.7 136.79 C38.37 135.45 41.21 122.16 41.12 122.13 L35.69 120.41 C35.483 122.258 34.7233 124.001 33.51 125.41 C32.35 126.84 30.91 128.23 30.51 130.11 C30.3446 131.387 30.5099 132.685 30.99 133.88 C31.3397 135.084 31.8908 136.22 32.62 137.24 z" style="fill:#91655F;" /><path d="M36.74 134.77 C36.53 134.47 36.31 134.19 36.08 133.91 C35.7273 133.501 35.4095 133.062 35.13 132.6 C34.3277 130.958 34.8113 128.977 36.28 127.89 C36.4236 127.766 36.4393 127.549 36.315 127.405 C36.1907 127.261 35.9736 127.246 35.83 127.37 C34.1085 128.674 33.5619 131.02 34.53 132.95 C34.8267 133.439 35.1611 133.903 35.53 134.34 C35.75 134.61 35.97 134.88 36.17 135.17 C36.7043 135.808 36.9696 136.63 36.91 137.46 C36.88 137.65 37.0097 137.829 37.2 137.86 L37.2 137.86 C37.3699 137.862 37.515 137.738 37.54 137.57 C37.647 136.568 37.3601 135.564 36.74 134.77 z" style="fill:#3D4040;" /><path d="M37.34 88.18 C37.5 91.76 38.25 95.47 38.34 98.79 C38.67 108 31 122 31 122 C31 122 41.71 127.26 42.64 127.77 C42.78 127.84 47.7 113.37 48.17 111.67 C49.99 105.01 51.55 73.93 47.17 74.37 C42.7214 74.8886 39.0313 78.0526 37.84 82.37 C37.3754 84.2694 37.2067 86.2291 37.34 88.18 z" style="fill:#A8AFB3;" /><path d="M114.39 50.74 L119.31 58.23 C119.31 58.23 118.12 60.97 112.09 62.05 C111.31 62.19 104.91 65.87 104.91 65.87 L102.59 62.32 z" style="fill:#91655F;" /><rect x="135.34" y="43.98" width="8.54" height="9.19" transform="matrix(0.825705, -0.564103, 0.564103, 0.825705, -3.07, 87.23)" style="fill:#6890CA;" /><rect x="123.48" y="26.61" width="8.54" height="9.19" transform="matrix(0.825705, -0.564103, 0.564103, 0.825705, 4.67, 77.51)" style="fill:#F26F61;" /><path d="M112.43 36.1 C107.21 39.6801 105.869 46.8073 109.43 52.04 L113.55 58.04 C117.123 63.2635 124.252 64.606 129.48 61.04 L138.68 54.75 L133.5 47.17 L124.3 53.45 C123.26 54.1567 121.846 53.8933 121.13 52.86 L117.02 46.86 C116.314 45.8236 116.578 44.4119 117.61 43.7 L126.81 37.41 L121.63 29.83 z" style="fill:#7BCAB3;" /><path d="M110.87 46.74 C111.125 46.253 111.589 45.9101 112.13 45.81 C112.989 45.8306 113.708 46.469 113.83 47.32 C113.927 48.1496 113.872 48.9897 113.67 49.8 C113.44 51.31 113.49 52.85 113.19 54.35 C112.37 58.54 109.37 60.35 106.06 62.45 C105.62 61.72 103.67 58.74 103.24 57.81 C104.42 56.81 105.48 55.75 106.56 54.66 C108.48 52.74 109.32 50.01 110.43 47.56 C110.559 47.2775 110.706 47.0036 110.87 46.74 z" style="fill:#91655F;" /><path d="M49.5 198.12 C48.6084 198.617 48.1584 199.648 48.4 200.64 C48.85 201.86 51.77 201.97 51.77 201.97 L70.24 201.76 C70.1232 199.829 69.7499 197.922 69.13 196.09 C67.2725 191.149 65.6835 186.112 64.37 181 C62.69 181 55.17 181.51 55.17 181.51 C55.17 181.51 57.07 189.88 56.79 191.83 C56.18 196.09 50.33 197.57 49.5 198.12 z" style="fill:#3D4040;" /><path d="M58.29 199.84 C54.74 199.84 51.21 199.79 48.09 199.69 C47.9006 199.679 47.7543 199.52 47.76 199.33 C47.7654 199.146 47.9161 199 48.1 199 L48.1 199 C54.9 199.22 63.62 199.2 70.32 198.94 C70.5074 198.929 70.6684 199.072 70.6795 199.259 C70.6797 199.263 70.6799 199.266 70.68 199.27 C70.6803 199.461 70.531 199.619 70.34 199.63 C66.72 199.77 62.49 199.84 58.29 199.84 z" style="fill:#91655F;" /><path d="M93.08 194.63 C93.0785 195.048 93.178 195.459 93.37 195.83 C93.8834 196.531 94.5735 197.083 95.37 197.43 C98.13 198.9 97.67 202.59 97.67 202.59 L79.86 202.59 C79.7146 200.994 80.1751 199.402 81.15 198.13 C82.02 197.13 83.15 196.82 83.15 195.29 C83.26 191.74 83.15 183.97 83.15 183.97 L93.15 184.24 C92.91 184.22 93.08 194.48 93.08 194.63 z" style="fill:#3D4040;" /><path d="M96.79 198.27 C96.3515 197.801 95.854 197.391 95.31 197.05 C94.636 196.671 94.079 196.114 93.7 195.44 C93.29 194.6 93.4 190.85 93.48 188.12 C93.48 186.43 93.57 184.98 93.48 184.12 C93.4814 183.943 93.3392 183.799 93.1625 183.798 C93.1483 183.797 93.1341 183.798 93.12 183.8 C92.9378 183.805 92.794 183.956 92.7987 184.139 C92.7989 184.146 92.7993 184.153 92.8 184.16 C92.8 184.96 92.8 186.47 92.8 188.07 C92.69 191.96 92.65 194.79 93.09 195.71 C93.2193 195.972 93.3805 196.217 93.57 196.44 C91.875 195.836 90.0764 195.578 88.28 195.68 C84.9277 195.908 81.7738 197.352 79.41 199.74 C79.2747 199.87 79.2705 200.085 79.4007 200.221 C79.4038 200.224 79.4069 200.227 79.41 200.23 C79.4753 200.291 79.5605 200.327 79.65 200.33 C79.7445 200.328 79.8343 200.288 79.9 200.22 C82.1454 197.95 85.1441 196.581 88.33 196.37 C91.57 196.17 95.07 197.37 96.65 199.22 C96.6733 199.251 96.7044 199.275 96.74 199.29 C97.3281 200.301 97.5571 201.482 97.39 202.64 C97.379 202.822 97.5175 202.978 97.6994 202.989 C97.7063 202.99 97.7131 202.99 97.72 202.99 L97.72 202.99 C97.9077 202.996 98.0644 202.848 98.07 202.66 C98.07 202.66 98.07 202.66 98.07 202.66 C98.14 200.77 98 199.62 96.79 198.27 z" style="fill:#91655F;" /><path d="M82.47 145 L80.94 140.22 C79.04 134.22 77.22 128.163 75.48 122.05 C73.83 116.27 73 108.22 68.4 103.86 C65.56 101.17 50.68 100.62 48.09 102.57 C44.78 105.07 43.87 111.33 42.72 115.16 L37.72 131.83 C36.7527 134.535 36.226 137.378 36.16 140.25 C36.42 148.48 41.97 157.45 44.74 165.09 C46.4667 169.85 48.11 174.637 49.67 179.45 C50.62 182.38 52.92 192.08 52.92 192.08 L72.84 192 C72.84 192 70.33 183.9 70.1 183.07 C67.18 172.77 62.97 162.9 59.68 152.72 C58.4779 149.534 57.7339 146.195 57.47 142.8 C57.4384 140.475 57.7449 138.157 58.38 135.92 C60.16 141.46 61.63 145.92 62.05 146.92 C67.81 161.92 73.88 176.15 80.21 191.17 C86.12 191.22 93.21 191.22 99.27 190.92 C93.92 175.92 87.37 160.21 82.47 145 z" style="fill:#6890CA;" /><path d="M103.85 54.36 C98.74 57.36 94.73 60.36 89.46 63.12 C84.5388 65.7778 79.4322 68.0771 74.18 70 C70.702 71.1001 67.1496 71.9489 63.55 72.54 C59.2 72.87 54.78 72.87 50.47 73.39 C49.82 73.47 49.17 73.56 48.53 73.67 C46.3322 74.0257 44.2453 74.8809 42.43 76.17 C40.61 77.78 41.43 83.31 41.43 85.65 C41.28 90.73 43.81 107.27 44.56 108.09 C45.91 109.54 52.92 109.92 56.88 109.34 C65.17 108.1 70.41 108.56 71.35 105.16 C71.96 102.93 71.35 100.29 71.72 97.95 C72.66 91.82 74.51 87.82 79.32 83.67 C84.65 79.09 105.1 66.83 110.03 64.38 C110.62 64.05 104.56 55.05 103.85 54.36 z" style="fill:#A8AFB3;" /><path d="M56.61 63.11 C57.1209 66.4567 54.822 69.584 51.4753 70.0949 C51.4402 70.1002 51.4051 70.1053 51.37 70.11 C47.9777 70.2793 45.0904 67.6665 44.9212 64.2741 C44.9208 64.2661 44.9204 64.258 44.92 64.25 C44.9 57.31 55.32 56.35 56.61 63.11 z" style="fill:#91655F;" /><path d="M55.73 59.23 C55.0891 58.4032 54.2402 57.7614 53.27 57.37 C51.785 56.784 50.1292 56.8056 48.66 57.43 C46.54 58.31 44.57 59.93 44.11 62.29 C43.9031 63.4043 43.9963 64.5536 44.38 65.62 C44.48 65.92 45.58 68.19 45.83 68.02 C47.5294 66.8835 49.0268 65.4706 50.26 63.84 C51.16 62.66 51.95 61.19 51.6 59.75 C53.14 60.49 54.74 60.52 56.31 61 C56.3572 60.3567 56.1488 59.7206 55.73 59.23 z" style="fill:#3D4040;" /><path d="M68.61 164.28 C68.667 164.4 68.7871 164.478 68.92 164.48 C68.9696 164.489 69.0204 164.489 69.07 164.48 C69.2426 164.399 69.3182 164.194 69.24 164.02 C63.4029 150.546 58.5404 136.67 54.69 122.5 C54.6435 122.324 54.463 122.219 54.2867 122.265 C54.2811 122.267 54.2755 122.268 54.27 122.27 C54.0885 122.318 53.9806 122.505 54.0289 122.686 C54.0293 122.687 54.0296 122.689 54.03 122.69 C57.8936 136.883 62.766 150.781 68.61 164.28 z" style="fill:#3D4040;" /><path d="M73 122 C69.0452 120.52 65.8425 117.526 64.1 113.68 C64.0186 113.507 63.814 113.432 63.64 113.51 C63.4688 113.587 63.3927 113.789 63.4699 113.96 C63.4699 113.96 63.47 113.96 63.47 113.96 C65.2986 117.973 68.6426 121.097 72.77 122.65 L72.89 122.65 C73.0348 122.649 73.1632 122.557 73.21 122.42 C73.2582 122.247 73.1675 122.065 73 122 z" style="fill:#3D4040;" /><path d="M70.73 183.92 C65.3 184.16 55.61 184.11 50.42 184.02 C50.2364 184.034 50.0889 184.177 50.07 184.36 C50.0699 184.549 50.2206 184.705 50.41 184.71 C52.8 184.71 56.14 184.78 59.59 184.78 C63.59 184.78 67.82 184.78 70.76 184.6 C70.9423 184.6 71.0903 184.453 71.0906 184.271 C71.0906 184.264 71.0904 184.257 71.09 184.25 C71.0969 184.073 70.9594 183.925 70.7828 183.918 C70.7652 183.917 70.7475 183.918 70.73 183.92 z" style="fill:#3D4040;" /><path d="M97.08 183.12 C97.0703 182.938 96.915 182.798 96.733 182.808 C96.7253 182.808 96.7176 182.809 96.71 182.81 C91.31 183.25 81.54 183.96 76.84 183.61 C76.653 183.593 76.4877 183.731 76.4709 183.918 C76.4705 183.922 76.4702 183.926 76.47 183.93 C76.4585 184.12 76.6005 184.284 76.79 184.3 C77.68 184.37 78.74 184.39 79.91 184.39 C85.04 184.39 92.35 183.86 96.77 183.49 C96.952 183.48 97.0917 183.325 97.082 183.143 C97.0816 183.135 97.0809 183.128 97.08 183.12 z" style="fill:#3D4040;" /><path d="M52.18 80.74 C53.0872 78.0151 54.2665 75.3886 55.7 72.9 C55.7907 72.7419 55.736 72.5402 55.5779 72.4496 C55.572 72.4462 55.5661 72.443 55.56 72.44 C55.3914 72.3508 55.1823 72.413 55.09 72.58 C53.7483 74.9455 52.6108 77.4211 51.69 79.98 C50.1536 78.0496 48.9781 75.8578 48.22 73.51 C48.139 73.3345 47.931 73.2579 47.7555 73.339 C47.6069 73.4076 47.5257 73.57 47.56 73.73 C48.405 76.3278 49.7427 78.7384 51.5 80.83 C52.2914 90.4548 53.8124 100.006 56.05 109.4 C56.0869 109.552 56.2232 109.66 56.38 109.66 L56.47 109.66 C56.6535 109.611 56.7644 109.425 56.72 109.24 C54.4917 99.8678 52.9741 90.3407 52.18 80.74 z" style="fill:#3D4040;" /><path d="M41.85 84.05 C41.8615 83.8602 41.7195 83.6959 41.53 83.68 C41.3423 83.6793 41.1856 83.823 41.17 84.01 C40.6798 92.2718 41.731 100.553 44.27 108.43 C44.3105 108.573 44.4415 108.671 44.59 108.67 C44.6261 108.679 44.6639 108.679 44.7 108.67 C44.8789 108.613 44.9779 108.422 44.9209 108.243 C44.9206 108.242 44.9203 108.241 44.92 108.24 C42.4129 100.435 41.372 92.2337 41.85 84.05 z" style="fill:#3D4040;" /><path d="M70.87 94.47 C68.4138 88.7032 67.8059 82.3167 69.13 76.19 C69.1676 76.0057 69.0528 75.8246 68.87 75.78 C68.6857 75.7424 68.5046 75.8572 68.46 76.04 C67.105 82.3074 67.7269 88.8408 70.24 94.74 C70.292 94.8657 70.414 94.9483 70.55 94.95 C70.5962 94.9594 70.6438 94.9594 70.69 94.95 C70.8688 94.8765 70.9541 94.6719 70.8805 94.4932 C70.8773 94.4853 70.8738 94.4776 70.87 94.47 z" style="fill:#3D4040;" /><path d="M170.34 37.45 C170.34 40.2114 168.101 42.45 165.34 42.45 C162.579 42.45 160.34 40.2114 160.34 37.45 C160.34 34.6886 162.579 32.45 165.34 32.45 C168.101 32.45 170.34 34.6886 170.34 37.45 z" style="fill:#FFD365;" /><path d="M168.59 37.27 C168.412 37.2115 168.219 37.3086 168.161 37.4871 C168.161 37.488 168.16 37.489 168.16 37.49 C167.795 38.6099 166.767 39.3813 165.59 39.42 C164.409 39.4404 163.345 38.7096 162.94 37.6 C162.875 37.4238 162.679 37.3337 162.503 37.3988 C162.502 37.3992 162.501 37.3996 162.5 37.4 C162.323 37.4658 162.23 37.6607 162.29 37.84 C162.811 39.1874 164.096 40.085 165.54 40.11 L165.61 40.11 C167.077 40.0524 168.355 39.0927 168.82 37.7 C168.881 37.5282 168.791 37.3396 168.619 37.2788 C168.609 37.2754 168.6 37.2725 168.59 37.27 z" style="fill:#3D4040;" /><path d="M167.11 34.88 C167.044 34.865 166.976 34.865 166.91 34.88 C166.59 34.9858 166.417 35.3309 166.522 35.6507 C166.551 35.7364 166.598 35.8147 166.66 35.88 C166.901 36.0827 167.26 36.0518 167.463 35.811 C167.666 35.5702 167.635 35.2106 167.394 35.0079 C167.313 34.9397 167.215 34.8954 167.11 34.88 z" style="fill:#3D4040;" /><path d="M164 34.86 C163.663 34.8757 163.403 35.1613 163.419 35.4978 C163.425 35.6307 163.475 35.7579 163.56 35.86 C163.809 36.0784 164.188 36.0534 164.407 35.8042 C164.435 35.7722 164.459 35.7372 164.48 35.7 C164.597 35.3665 164.422 35.0012 164.088 34.8841 C164.059 34.874 164.03 34.8659 164 34.86 z" style="fill:#3D4040;" /><path d="M164.75 16.79 C164.75 19.5514 162.511 21.79 159.75 21.79 C156.989 21.79 154.75 19.5514 154.75 16.79 C154.75 14.0286 156.989 11.79 159.75 11.79 C162.511 11.79 164.75 14.0286 164.75 16.79 z" style="fill:#FFD365;" /><path d="M163 16.61 C162.818 16.5505 162.622 16.6486 162.56 16.83 C162.196 17.9465 161.174 18.7172 160 18.76 C158.819 18.7804 157.755 18.0496 157.35 16.94 C157.292 16.7671 157.105 16.6738 156.932 16.7316 C156.925 16.7341 156.917 16.7369 156.91 16.74 C156.733 16.8058 156.64 17.0007 156.7 17.18 C157.227 18.5442 158.537 19.4454 160 19.45 L160 19.45 C161.485 19.3946 162.776 18.4151 163.23 17 C163.264 16.8304 163.165 16.6626 163 16.61 z" style="fill:#3D4040;" /><path d="M161.52 14.22 C161.454 14.2053 161.386 14.2053 161.32 14.22 C161.007 14.3442 160.854 14.6987 160.978 15.0119 C161 15.0689 161.031 15.1222 161.07 15.17 C161.311 15.3727 161.67 15.3418 161.873 15.101 C162.076 14.8602 162.045 14.5006 161.804 14.2979 C161.723 14.2297 161.625 14.1854 161.52 14.17 z" style="fill:#3D4040;" /><path d="M158.36 14.2 C158.024 14.221 157.768 14.5106 157.789 14.8469 C157.797 14.9766 157.847 15.1003 157.93 15.2 C158.174 15.4162 158.547 15.3938 158.763 15.15 C158.793 15.1164 158.819 15.0795 158.84 15.04 C158.953 14.6993 158.768 14.3314 158.428 14.2184 C158.405 14.2111 158.383 14.2049 158.36 14.2 z" style="fill:#3D4040;" /><path d="M153.85 29.75 C154.705 29.4123 155.68 29.6815 156.24 30.41 C156.905 31.3048 157.043 32.4866 156.6 33.51 C155.87 35.57 153.69 37 151.82 38.13 C150.647 37.6341 149.557 36.9594 148.59 36.13 C147.519 35.3723 146.798 34.2153 146.59 32.92 C146.403 31.6873 147.034 30.475 148.15 29.92 C149.95 29.33 151.15 31.11 151.69 32.18 C152.082 31.1291 152.852 30.2625 153.85 29.75 z" style="fill:#F26F61;" /><path d="M170.5 22.88 C171.094 22.649 171.769 22.8361 172.16 23.34 C172.624 23.9594 172.72 24.7806 172.41 25.49 C171.9 26.93 170.41 27.92 169.08 28.71 C168.265 28.3581 167.51 27.8825 166.84 27.3 C166.102 26.7716 165.608 25.9675 165.47 25.07 C165.334 24.2095 165.771 23.3601 166.55 22.97 C167.81 22.56 168.68 23.79 169.02 24.54 C169.282 23.8175 169.812 23.2233 170.5 22.88 z" style="fill:#F26F61;" /><path d="M142.28 13.14 L144.49 17.62 L149.43 18.34 L145.85 21.82 L146.7 26.74 L142.28 24.42 L137.86 26.74 L138.7 21.82 L135.13 18.34 L140.07 17.62 L142.28 13.14 z" style="fill:#FFD365;" /><path d="M179.29 25.67 L180.35 27.82 L182.72 28.16 L181 29.84 L181.41 32.2 L179.29 31.08 L177.17 32.2 L177.58 29.84 L175.86 28.16 L178.23 27.82 L179.29 25.67 z" style="fill:#FFD365;" /><path d="M151.83 2.16 L152.79 4.11 L154.94 4.42 L153.39 5.93 L153.75 8.07 L151.83 7.06 L149.91 8.07 L150.28 5.93 L148.72 4.42 L150.87 4.11 L151.83 2.16 z" style="fill:#FFD365;" /><path d="M176.26 9.59 L176.9 10.89 L178.33 11.1 L177.29 12.11 L177.54 13.54 L176.26 12.86 L174.97 13.54 L175.22 12.11 L174.18 11.1 L175.62 10.89 L176.26 9.59 z" style="fill:#FFD365;" /><circle cx="111.55" cy="134.84" r="6.39" style="fill:#FFD365;" /><path d="M115.68 134.69 C115.498 134.638 115.308 134.74 115.25 134.92 C114.652 136.822 112.625 137.879 110.723 137.28 C109.648 136.942 108.792 136.121 108.41 135.06 C108.352 134.887 108.165 134.794 107.992 134.852 C107.985 134.854 107.977 134.857 107.97 134.86 C107.793 134.926 107.7 135.121 107.76 135.3 C108.401 136.964 109.978 138.08 111.76 138.13 L111.85 138.13 C113.676 138.056 115.267 136.862 115.85 135.13 C115.921 134.961 115.846 134.767 115.68 134.69 z" style="fill:#3D4040;" /><path d="M113.82 131.55 C113.734 131.535 113.646 131.535 113.56 131.55 C113.16 131.711 112.967 132.165 113.128 132.565 C113.158 132.639 113.199 132.708 113.25 132.77 C113.564 133.049 114.044 133.021 114.323 132.707 C114.36 132.665 114.393 132.619 114.42 132.57 C114.559 132.162 114.342 131.719 113.934 131.58 C113.897 131.567 113.859 131.557 113.82 131.55 z" style="fill:#3D4040;" /><path d="M109.79 131.53 C109.36 131.551 109.028 131.917 109.049 132.347 C109.057 132.517 109.121 132.68 109.23 132.81 C109.537 133.088 110.011 133.066 110.289 132.759 C110.333 132.711 110.37 132.658 110.4 132.6 C110.543 132.165 110.306 131.695 109.871 131.552 C109.844 131.543 109.817 131.536 109.79 131.53 z" style="fill:#3D4040;" /><path d="M102.17 113.49 C103.121 112.803 104.411 112.823 105.34 113.54 C106.445 114.433 106.993 115.845 106.78 117.25 C106.55 120.03 104.32 122.49 102.37 124.49 C100.758 124.24 99.1953 123.737 97.74 123 C96.1812 122.404 94.9296 121.203 94.27 119.67 C93.75 118.09 93.98 116.24 95.27 115.44 C97.27 114.14 99.42 115.92 100.37 117.09 C100.52 115.713 101.159 114.436 102.17 113.49 z" style="fill:#F26F61;" /><path d="M121.89 106.74 C122.701 106.674 123.459 107.144 123.76 107.9 C124.116 108.824 123.944 109.869 123.31 110.63 C122.18 112.21 119.96 112.88 118.09 113.38 C117.213 112.663 116.453 111.813 115.84 110.86 C115.122 109.946 114.805 108.781 114.96 107.63 C115.21 106.51 116.01 105.48 117.03 105.45 C118.71 105.45 119.34 107.22 119.49 108.25 C120.079 107.47 120.932 106.933 121.89 106.74 z" style="fill:#F26F61;" /><path d="M97.53 93.13 L100.35 98.84 L106.66 99.76 L102.09 104.2 L103.17 110.48 L97.53 107.52 L91.9 110.48 L92.97 104.2 L88.41 99.76 L94.72 98.84 L97.53 93.13 z" style="fill:#FFD365;" /><path d="M116.16 115.91 L117.52 118.64 L120.54 119.08 L118.35 121.21 L118.87 124.22 L116.16 122.8 L113.46 124.22 L113.98 121.21 L111.79 119.08 L114.81 118.64 L116.16 115.91 z" style="fill:#FFD365;" /><path d="M99.47 127.58 L100.7 130.06 L103.44 130.46 L101.45 132.4 L101.92 135.13 L99.47 133.84 L97.02 135.13 L97.49 132.4 L95.5 130.46 L98.24 130.06 L99.47 127.58 z" style="fill:#FFD365;" /><path d="M109.43 102.28 L110.25 103.93 L112.07 104.2 L110.75 105.49 L111.06 107.31 L109.43 106.45 L107.8 107.31 L108.11 105.49 L106.78 104.2 L108.61 103.93 L109.43 102.28 z" style="fill:#FFD365;" /><path d="M97.45 156.19 L116.29 156.19 C117.943 156.176 119.417 155.147 120 153.6 L123.67 143.71 C124.184 142.187 123.365 140.536 121.843 140.023 C121.545 139.922 121.234 139.871 120.92 139.87 L93.19 139.87 z" style="fill:#7BCAB3;" /><path d="M118.57 150.79 C115.86 151.42 113.17 152.13 110.51 152.94 C112.51 150.273 114.413 147.56 116.22 144.8 C118.707 143.807 121.18 142.787 123.64 141.74 C123.588 141.597 123.521 141.459 123.44 141.33 C121.19 142.28 118.93 143.22 116.66 144.13 C117.58 142.73 118.473 141.31 119.34 139.87 L118.8 139.87 C117.87 141.41 116.9 142.93 115.92 144.43 C111.567 146.17 107.183 147.837 102.77 149.43 C105.59 146.303 108.35 143.13 111.05 139.91 L110.45 139.91 C107.65 143.243 104.787 146.523 101.86 149.75 C100 150.417 98.1333 151.06 96.26 151.68 L96.38 152.12 C97.99 151.59 99.61 151.03 101.21 150.47 C99.8767 151.957 98.51 153.437 97.11 154.91 L97.24 155.43 C98.8933 153.69 100.523 151.93 102.13 150.15 C106.597 148.57 111.047 146.903 115.48 145.15 C113.653 147.903 111.747 150.59 109.76 153.21 C106.84 154.117 103.95 155.117 101.09 156.21 L102.37 156.21 C104.65 155.35 106.953 154.553 109.28 153.82 C108.66 154.62 108.04 155.42 107.41 156.21 L108 156.21 C108.69 155.34 109.37 154.46 110 153.58 C112.62 152.767 115.267 152.047 117.94 151.42 C116.44 152.98 114.94 154.58 113.57 156.21 L114.18 156.21 C115.67 154.51 117.18 152.85 118.76 151.21 C119.52 151.03 120.28 150.87 121.04 150.71 L121.23 150.2 L119.35 150.6 C120.25 149.693 121.16 148.793 122.08 147.9 L122.45 146.9 C121.15 148.18 119.85 149.47 118.57 150.79 z" style="fill:#C3E5DE;" /><path d="M101.98 139.87 L94.63 145.39 L94.76 145.87 L102.75 139.87 L101.98 139.87 z" style="fill:#C3E5DE;" /><path d="M104 165.13 C104 166.235 103.105 167.13 102 167.13 C100.895 167.13 100 166.235 100 165.13 C100 164.025 100.895 163.13 102 163.13 C103.105 163.13 104 164.025 104 165.13 z" style="fill:#3D4040;" /><circle cx="115.39" cy="165.13" r="2.03" style="fill:#3D4040;" /><path d="M116.29 160.43 L103.11 160.43 C100.548 160.431 98.3114 158.693 97.68 156.21 L92.77 136.38 C92.4158 134.975 91.1489 133.993 89.7 134 L84.35 134 C84.1622 134 84.01 134.152 84.01 134.34 C84.0099 134.529 84.1606 134.685 84.35 134.69 L89.7 134.69 C90.8345 134.688 91.8244 135.459 92.1 136.56 L97 156.37 C97.7054 159.164 100.219 161.121 103.1 161.12 L116.28 161.12 C116.469 161.115 116.62 160.959 116.62 160.77 C116.62 160.586 116.474 160.435 116.29 160.43 z" style="fill:#3D4040;" /><path d="M122.78 51.82 C122.962 51.2467 122.829 50.6202 122.43 50.17 C122.049 49.7531 121.505 49.523 120.94 49.54 C121.576 48.6372 121.36 47.3894 120.458 46.753 C119.979 46.4158 119.377 46.305 118.81 46.45 C119.389 45.3132 118.937 43.9222 117.8 43.3432 C117.158 43.016 116.4 43.0074 115.75 43.32 C114.908 43.7562 114.396 44.6425 114.44 45.59 C114.503 46.7979 115.533 47.7261 116.741 47.6633 C116.896 47.6553 117.05 47.6307 117.2 47.59 C116.9 47.71 116.72 48.53 116.69 48.8 C116.649 49.3264 116.818 49.8477 117.16 50.25 C117.797 50.865 118.747 51.024 119.55 50.65 C119.138 51.1569 119.138 51.8831 119.55 52.39 C119.971 52.8483 120.58 53.0849 121.2 53.03 C121.195 53.1066 121.195 53.1834 121.2 53.26 C121.248 54.0428 121.921 54.6389 122.703 54.5914 C123.486 54.5439 124.082 53.8708 124.035 53.088 C123.994 52.4195 123.492 51.8703 122.83 51.77 z" style="fill:#91655F;" /></g></g></svg>